{
  "accessors": [
    {
      "bufferView": 2,
      "componentType": 5126,
      "count": 522,
      "max": [
        1.0,
        1.248917579650879,
        1.15653657913208
      ],
      "min": [
        -1.0,
        -1.0,
        -1.0
      ],
      "type": "VEC3"
    },
    {
      "bufferView": 2,
      "byteOffset": 6264,
      "componentType": 5126,
      "count": 522,
      "max": [
        1.0,
        1.0,
        1.0
      ],
      "min": [
        -1.0,
        -1.0,
        -1.0
      ],
      "type": "VEC3"
    },
    {
      "bufferView": 1,
      "componentType": 5126,
      "count": 522,
      "max": [
        0.9947614073753357,
        0.9730750322341919
      ],
      "min": [
        0.06841045618057251,
        0.0820535197854042
      ],
      "type": "VEC2"
    },
    {
      "bufferView": 0,
      "componentType": 5125,
      "count": 876,
      "type": "SCALAR"
    },
    {
      "bufferView": 2,
      "byteOffset": 12528,
      "componentType": 5126,
      "count": 768,
      "max": [
        2.4096031188964844,
        -0.8550671339035034,
        2.327568292617798
      ],
      "min": [
        -2.4096031188964844,
        -1.0,
        -2.327568292617798
      ],
      "type": "VEC3"
    },
    {
      "bufferView": 2,
      "byteOffset": 21744,
      "componentType": 5126,
      "count": 768,
      "max": [
        0.9951850175857544,
        1.0,
        0.9951848387718201
      ],
      "min": [
        -0.9951850175857544,
        -1.0,
        -0.9951848387718201
      ],
      "type": "VEC3"
    },
    {
      "bufferView": 1,
      "byteOffset": 4176,
      "componentType": 5126,
      "count": 768,
      "max": [
        1.0,
        1.0
      ],
      "min": [
        0.0,
        0.01000000536441803
      ],
      "type": "VEC2"
    },
    {
      "bufferView": 0,
      "byteOffset": 3504,
      "componentType": 5125,
      "count": 1488,
      "type": "SCALAR"
    },
    {
      "bufferView": 2,
      "byteOffset": 30960,
      "componentType": 5126,
      "count": 1332,
      "max": [
        13.307954788208008,
        0.12669068574905396,
        1.0
      ],
      "min": [
        -13.692045211791992,
        -1.0,
        -1.0
      ],
      "type": "VEC3"
    },
    {
      "bufferView": 2,
      "byteOffset": 46944,
      "componentType": 5126,
      "count": 1332,
      "max": [
        1.0,
        1.0,
        0.9951848387718201
      ],
      "min": [
        -1.0,
        -1.0,
        -0.9951848983764648
      ],
      "type": "VEC3"
    },
    {
      "bufferView": 1,
      "byteOffset": 10320,
      "componentType": 5126,
      "count": 1332,
      "max": [
        0.8461796641349792,
        0.16195650398731232
      ],
      "min": [
        0.7092708349227905,
        0.12642261385917664
      ],
      "type": "VEC2"
    },
    {
      "bufferView": 0,
      "byteOffset": 9456,
      "componentType": 5125,
      "count": 2520,
      "type": "SCALAR"
    }
  ],
  "asset": {
    "extras": {
      "author": "CodingForDinner (https://sketchfab.com/codingfordinner)",
      "license": "CC-BY-4.0 (http://creativecommons.org/licenses/by/4.0/)",
      "source": "https://sketchfab.com/3d-models/low-poly-oven-65c0ca261ad44a9daac42fa20733c2d2",
      "title": "Low-poly oven"
    },
    "generator": "Sketchfab-14.64.0",
    "version": "2.0"
  },
  "bufferViews": [
    {
      "buffer": 0,
      "byteLength": 19536,
      "name": "floatBufferViews",
      "target": 34963
    },
    {
      "buffer": 0,
      "byteLength": 20976,
      "byteOffset": 19536,
      "byteStride": 8,
      "name": "floatBufferViews",
      "target": 34962
    },
    {
      "buffer": 0,
      "byteLength": 62928,
      "byteOffset": 40512,
      "byteStride": 12,
      "name": "floatBufferViews",
      "target": 34962
    }
  ],
  "buffers": [
    {
      "byteLength": 103440,
      "uri": "scene.bin"
    }
  ],
  "images": [
    {
      "uri": "textures/Material_baseColor.png"
    }
  ],
  "materials": [
    {
      "doubleSided": true,
      "name": "Material",
      "pbrMetallicRoughness": {
        "baseColorTexture": {
          "index": 0
        },
        "metallicFactor": 0.0,
        "roughnessFactor": 0.4
      }
    },
    {
      "doubleSided": true,
      "name": "Material.001",
      "pbrMetallicRoughness": {
        "baseColorFactor": [
          0.020792,
          0.020792,
          0.020792,
          1.0
        ],
        "metallicFactor": 0.0,
        "roughnessFactor": 0.5
      }
    }
  ],
  "meshes": [
    {
      "name": "Object_0",
      "primitives": [
        {
          "attributes": {
            "NORMAL": 1,
            "POSITION": 0,
            "TEXCOORD_0": 2
          },
          "indices": 3,
          "material": 0,
          "mode": 4
        }
      ]
    },
    {
      "name": "Object_1",
      "primitives": [
        {
          "attributes": {
            "NORMAL": 5,
            "POSITION": 4,
            "TEXCOORD_0": 6
          },
          "indices": 7,
          "material": 1,
          "mode": 4
        }
      ]
    },
    {
      "name": "Object_2",
      "primitives": [
        {
          "attributes": {
            "NORMAL": 9,
            "POSITION": 8,
            "TEXCOORD_0": 10
          },
          "indices": 11,
          "material": 0,
          "mode": 4
        }
      ]
    }
  ],
  "nodes": [
    {
      "children": [
        1
      ],
      "matrix": [
        1.0,
        0.0,
        0.0,
        0.0,
        0.0,
        2.220446049250313e-16,
        -1.0,
        0.0,
        0.0,
        1.0,
        2.220446049250313e-16,
        0.0,
        0.0,
        0.0,
        0.0,
        1.0
      ],
      "name": "Sketchfab_model"
    },
    {
      "children": [
        2
      ],
      "name": "root"
    },
    {
      "children": [
        3,
        5,
        7
      ],
      "matrix": [
        1.0,
        0.0,
        0.0,
        0.0,
        0.0,
        2.220446049250313e-16,
        1.0,
        0.0,
        0.0,
        -1.0,
        2.220446049250313e-16,
        0.0,
        0.0,
        0.0,
        0.0,
        1.0
      ],
      "name": "GLTF_SceneRootNode"
    },
    {
      "children": [
        4
      ],
      "matrix": [
        3.0,
        0.0,
        0.0,
        0.0,
        0.0,
        3.0,
        0.0,
        0.0,
        0.0,
        0.0,
        3.0,
        0.0,
        0.0,
        0.0,
        0.0,
        1.0
      ],
      "name": "Cube_0"
    },
    {
      "mesh": 0,
      "name": "Object_4"
    },
    {
      "children": [
        6
      ],
      "matrix": [
        1.0,
        0.0,
        0.0,
        0.0,
        0.0,
        1.0,
        0.0,
        0.0,
        0.0,
        0.0,
        1.0,
        0.0,
        0.0,
        4.010097026824951,
        0.0,
        1.0
      ],
      "name": "Cylinder_3"
    },
    {
      "mesh": 1,
      "name": "Object_6"
    },
    {
      "children": [
        8
      ],
      "matrix": [
        0.15904223918914795,
        0.0,
        0.0,
        0.0,
        0.0,
        0.0,
        0.15904223918914795,
        0.0,
        0.0,
        -0.15904223918914795,
        0.0,
        0.0,
        0.0,
        2.5634169578552246,
        3.3464033603668213,
        1.0
      ],
      "name": "Cylinder.001_4"
    },
    {
      "mesh": 2,
      "name": "Object_8"
    }
  ],
  "samplers": [
    {
      "magFilter": 9729,
      "minFilter": 9987,
      "wrapS": 10497,
      "wrapT": 10497
    }
  ],
  "scene": 0,
  "scenes": [
    {
      "name": "Sketchfab_Scene",
      "nodes": [
        0
      ]
    }
  ],
  "textures": [
    {
      "sampler": 0,
      "source": 0
    }
  ]
}
